<!DOCTYPE svg PUBLIC "-//W3C//DTD SVG 1.1//EN" "http://www.w3.org/Graphics/SVG/1.1/DTD/svg11.dtd">
<!-- Uploaded to: SVG Repo, www.svgrepo.com, Transformed by: SVG Repo Mixer Tools -->
<svg fill="#3c3c3c" height="800px" width="800px" version="1.1" id="Layer_1" xmlns="http://www.w3.org/2000/svg" xmlns:xlink="http://www.w3.org/1999/xlink" viewBox="0 0 512 512" xml:space="preserve">
<g id="SVGRepo_bgCarrier" stroke-width="0"/>
<g id="SVGRepo_tracerCarrier" stroke-linecap="round" stroke-linejoin="round"/>
<g id="SVGRepo_iconCarrier"> <g> <g> <path d="M506.328,271.408c-16.087-4.226-32.889-6.751-50.04-7.571c-0.547-0.078-1.094-0.096-1.634-0.056 c-14.008-0.581-28.238-0.035-42.497,1.659c-0.236,0.015-0.471,0.041-0.706,0.078c-7.47,0.907-14.946,2.125-22.401,3.658 c-5.795,1.192-11.242,2.505-16.293,3.863c-0.012,0.003-0.025,0.007-0.038,0.01c-16.852,4.529-29.23,9.542-34.968,12.19 c-12.38-3.263-61.127-14.773-108.534-7.701c-34.145-34.353-72.205-54.301-105.568-65.861c-0.558-0.271-1.138-0.464-1.727-0.59 c-14.164-4.809-27.449-8.124-39.175-10.389c-43.325-8.369-74.688-4.851-76.001-4.698c-3.831,0.448-6.72,3.696-6.72,7.552v217.618 c0,0.951,0.182,1.858,0.502,2.698v80.529c0,4.2,3.405,7.604,7.604,7.604h139.844h11.07h82.367c0.004,0,0.008,0.001,0.012,0.001 c0.007,0,0.014-0.001,0.022-0.001h262.946c4.199,0,7.604-3.404,7.604-7.604V278.763 C511.999,275.307,509.671,272.286,506.328,271.408z M211.168,281.225c-8.574,2.264-16.937,5.276-24.852,9.211 c-6.52-18.272-18.139-34.762-29.539-47.829C174.962,252.249,193.519,264.823,211.168,281.225z M80.402,215.734 c10.915,2.13,23.261,5.221,36.419,9.679c6.739,5.308,44.334,36.177,56.08,72.814c-18.235,11.808-28.174,22.035-38.641,32.81 c-0.127,0.131-0.254,0.263-0.382,0.393c-12.397-59.261-39.646-96.837-58.187-116.574 C77.244,215.135,78.814,215.425,80.402,215.734z M49.688,211.424c4.141,3.266,16.1,13.419,29.185,31.176 c14.633,19.857,33.668,53.535,41.982,101.748c-10.72,9.991-24.83,21.231-48.446,35.206c-2.188-96.013-28.224-147.382-43.2-169.156 C35.052,210.472,41.954,210.756,49.688,211.424z M15.235,217.018c13.285,18.549,41.281,69.615,42.088,171.111 c-11.88,6.506-25.75,13.574-42.088,21.319V217.018z M155.738,496.791h-7.763H15.737v-70.77 c21.043-9.828,38.305-18.639,52.681-26.643c0.135-0.069,0.265-0.143,0.394-0.22c44.676-24.92,61.271-41.994,76.356-57.524 c11.134-11.463,20.754-21.365,40.508-33.486c0.026-0.015,0.052-0.031,0.077-0.048c33.389-20.465,80.377-19.223,112.963-14.855 c-1.841,0.678-3.706,1.415-5.586,2.22c-21.975,9.406-50.212,29.911-59.935,74.188 C221.473,423.031,167.322,484.183,155.738,496.791z M235.022,496.791h-58.886c20.391-23.578,61.295-75.528,71.912-123.875 c6.65-30.281,23.664-51.563,50.568-63.254c13.979-6.074,27.22-7.923,34.336-8.485c-6.262,5.746-12.963,12.508-19.857,20.425 C286.043,352.671,250.869,408.098,235.022,496.791z M250.469,496.79c15.361-83.221,48.194-135.234,73.477-164.489 c25.406-29.396,48.307-42.148,52.925-44.544c5.262-1.41,11.022-2.783,17.223-4.014c-7.962,10.678-18.636,26.566-29.356,47.297 c-18.517,35.807-40.467,93.195-41.919,165.75H250.469z M338.034,496.791c1.444-69.24,22.324-124.032,39.946-158.246 c16.38-31.803,32.942-52.018,38.35-58.241c8.871-0.988,18.303-1.581,28.173-1.569c-8.42,25.653-27.952,98.762-25.063,218.057 H338.034z M496.792,496.791h-62.138c-3.026-124.049,19.13-198.25,25.761-217.505c11.719,0.795,23.908,2.499,36.377,5.422V496.791z "/> </g> </g> <g> <g> <path d="M113.469,15.384c-8.078,0-15.786,2.25-22.434,6.458C81.888,8.327,66.569,0,49.804,0C22.343,0,0.001,22.341,0.001,49.803 c0,27.461,22.342,49.803,49.804,49.803h63.664c23.219,0,42.111-18.891,42.111-42.111 C155.579,34.276,136.688,15.384,113.469,15.384z M113.469,84.397H49.804C30.729,84.398,15.208,68.88,15.208,49.803 s15.52-34.595,34.596-34.595c13.967,0,26.491,8.322,31.905,21.2c0.99,2.353,3.092,4.052,5.601,4.526 c2.511,0.471,5.087-0.344,6.864-2.175c5.115-5.267,11.968-8.168,19.295-8.168c14.834,0,26.903,12.068,26.903,26.903 C140.371,72.329,128.302,84.397,113.469,84.397z"/> </g> </g> <g> <g> <path d="M411.123,2.028c-53.947,0-97.837,43.89-97.837,97.837c0,53.948,43.89,97.838,97.837,97.838s97.837-43.89,97.837-97.838 C508.96,45.918,465.07,2.028,411.123,2.028z M411.123,182.496c-45.562,0-82.63-37.069-82.63-82.631s37.068-82.63,82.63-82.63 s82.63,37.068,82.63,82.63S456.684,182.496,411.123,182.496z"/> </g> </g> </g>
</svg>