<!DOCTYPE svg PUBLIC "-//W3C//DTD SVG 1.1//EN" "http://www.w3.org/Graphics/SVG/1.1/DTD/svg11.dtd">
<!-- Uploaded to: SVG Repo, www.svgrepo.com, Transformed by: SVG Repo Mixer Tools -->
<svg fill="#3c3c3c" width="800px" height="800px" viewBox="0 0 128 128" id="Layer_1" version="1.1" xml:space="preserve" xmlns="http://www.w3.org/2000/svg" xmlns:xlink="http://www.w3.org/1999/xlink" stroke="#3c3c3c">
<g id="SVGRepo_bgCarrier" stroke-width="0"/>
<g id="SVGRepo_tracerCarrier" stroke-linecap="round" stroke-linejoin="round"/>
<g id="SVGRepo_iconCarrier"> <g> <path d="M123.5,98.6h-1.7c-1-4.6-4-8-7.4-8.3c-1.7-5.5-5.5-9-9.8-9c-2.9,0-5.5,1.6-7.4,4.3L65.4,22.9c-0.7-1.3-2.2-1.3-2.8,0 L31.5,84.4c-1.8-2-4.1-3.1-6.5-3.1c-5,0-9.3,5-10.5,11.8c-1.8,1.1-3.3,3.1-4.2,5.5H4.5c-1,0-1.8,1.1-1.8,2.5c0,1.4,0.8,2.5,1.8,2.5 h6.9h29.3H91h29.3h3.1c1,0,1.8-1.1,1.8-2.5C125.2,99.7,124.4,98.6,123.5,98.6z M16.4,97.3c0.7-0.3,1.2-1.1,1.3-2.1 c0.5-5.1,3.6-9,7.2-9c3.2,0,6,2.9,7,7.3c0.2,1.1,1,1.9,1.8,1.7l0.4-0.1c1.7,0,3.3,1.3,4.1,3.3H14.7C15.2,98,15.8,97.6,16.4,97.3z M111.5,93.6c0.2,1.1,1,1.9,1.8,1.7l0.4-0.1c1.7,0,3.3,1.3,4.1,3.3H94.3c0.5-0.6,1.1-1,1.7-1.2c0.7-0.3,1.2-1.1,1.3-2.1 c0.5-5.1,3.6-9,7.2-9C107.7,86.3,110.5,89.2,111.5,93.6z M73.4,93.8c0.3,0.3,0.7,0.5,1.1,0.5h18c-1,1-1.8,2.3-2.4,3.8H73.8 L73.4,93.8z M64,77.2c-1,0-1.8,1.1-1.8,2.5v18.4h-4.5L64.3,42l5.9,56.1h-4.5V79.7C65.8,78.3,65,77.2,64,77.2z M54.2,98.1H42 c-0.3-1.1-0.7-2.2-1.2-3.2h12.7c0.5,0,0.9-0.3,1.2-0.7L54.2,98.1z M74.4,89.3c-0.6,0-1.1,0.4-1.4,1.1l-5.9-55.5l27.5,54.4H74.4z M55,91.2c-0.3-0.8-0.9-1.3-1.5-1.3H34.7c-0.2-0.6-0.4-1.2-0.7-1.8L61.8,33L55,91.2z"/> </g> </g>
</svg>