<svg xmlns="http://www.w3.org/2000/svg" height="48" viewBox="0 96 960 960" width="48"><path d="M274.248 468.54q-29.94 0-50.94-20.987-20.999-20.988-20.999-50.935 0-29.538 20.982-50.73 20.983-21.193 50.923-21.193t50.94 21.193q21 21.192 21 50.922 0 29.731-20.983 50.731-20.983 20.999-50.923 20.999Zm-73.999 506.459q-17.709 0-31.632-11.5-13.923-11.5-13.923-29.5-29.5 0-50.096-20.597-20.597-20.596-20.597-50.096V627.001H202.31v-28.678q0-35.221 24.521-59.886 24.521-24.666 59.704-24.666 17.851 0 35.466 6.885 17.616 6.884 30.231 21.5l51.461 58.461q7 7.615 14.5 14.307 7.5 6.693 15.885 12.077h283.922v-336.23q0-19.322-13.154-33.123-13.154-13.801-32.339-13.801-9.467 0-18.263 2.654-8.797 2.654-15.244 9.039l-52.231 52.615q5.615 18 2.308 35.115-3.308 17.116-13.095 32.731l-101.289-96.155q16.645-10.795 35.002-14.05 18.357-3.256 36.033 3.36l52.503-50.616q15.004-14.787 34.302-23.932 19.297-9.144 40.48-9.144 43.209 0 73.79 30.799 30.581 30.799 30.581 74.508v336.23h98.616v236.305q0 29.5-20.597 50.096-20.596 20.597-50.096 20.597 0 18-14.159 29.5-14.16 11.5-32.146 11.5H200.249Zm-45.555-99.384h650.612q5.385 0 8.847-3.462 3.462-3.462 3.462-8.847V685.385h-675.23v177.921q0 5.385 3.462 8.847 3.462 3.462 8.847 3.462Zm662.921 0H142.385h675.23Z"/></svg>