<svg xmlns="http://www.w3.org/2000/svg" height="48" viewBox="0 96 960 960" width="48"><path d="m288.231 1017 120.692-620.308q3.231-22.923 21.808-36.076 18.576-13.154 38.269-13.154 20.076 0 37.538 9.231 17.461 9.23 28.307 25.307l39 64q17.77 30.769 52.231 55.5 34.462 24.731 80.232 41.27v-75.308h46.076V1017h-46.076V602.384q-48.539-11.385-93.924-39.5-45.384-28.116-83.615-70.885l-29.462 148.847 85.384 80.385V1017h-58.383V773.076l-103.463-88.307L350.23 1017h-61.999Zm3.538-401.616-73.307-13.846q-11.077-.616-18.346-11.923-7.269-11.308-4.654-22.615l30-157q5.616-28.538 29.308-44.577 23.692-16.038 52.23-10.038l34.692 8.231-49.923 251.768ZM535 293.692q-30.462 0-51.616-21.346-21.153-21.346-21.153-51.423 0-30.461 21.153-51.615 21.154-21.154 51.616-21.154 30.461 0 51.615 21.154 21.154 21.154 21.154 51.615 0 30.077-21.154 51.423T535 293.692Z"/></svg>