<svg xmlns="http://www.w3.org/2000/svg" height="48" viewBox="0 96 960 960" width="48"><path d="M177.438 856.999h-29.09l-18.539-81H84.001V583.668q0-26.263 15.923-47.542 15.924-21.278 42.77-24.278h26.769V385.695q0-29.596 20.399-50.144t50.293-20.548H720.23q28.596 0 49.644 20.548t21.048 50.144v126.153h27.384q24.596 3 41.145 23.548 16.548 20.548 16.548 46.551v194.052h-44.308l-20.513 81h-29.166l-19.089-81H198.692l-21.254 81Zm332.254-345.151h222.846V385.695q0-5.385-3.654-8.847-3.654-3.462-8.654-3.462H509.692v138.462Zm-281.846 0h223.462V373.386H240.155q-5.385 0-8.847 3.462-3.462 3.462-3.462 8.847v126.153Zm-85.461 205.767h675.23V582.54q0-5.001-3.462-8.655-3.462-3.654-8.847-3.654H154.694q-5.385 0-8.847 3.654-3.462 3.654-3.462 8.655v135.075Zm675.23 0h-675.23H817.615Z"/></svg>