<svg xmlns="http://www.w3.org/2000/svg" height="48" viewBox="0 96 960 960" width="48"><path d="M41.31 898.306v-90.922q0-35.549 16.957-61.667 16.956-26.118 48.912-40.31 66.899-29.483 123.56-44.483 56.661-15 125.762-15t125.262 15q56.161 15 123.489 44.504 30.714 13.898 48.385 40.101 17.67 26.203 17.67 61.855v90.922H41.31Zm698.382 0v-91.768q0-52.384-24.364-92.569-24.363-40.185-66.48-66.891 59.23 8.615 112.152 22.807 52.922 14.193 90.047 33.179 31.327 17.243 49.985 44.343 18.658 27.101 18.658 59.131v91.768H739.692Zm-383.191-339.23q-64.492 0-105.688-41.196-41.195-41.196-41.195-105.187 0-63.992 41.195-105.495 41.196-41.504 105.188-41.504 63.992 0 105.495 41.391Q503 348.476 503 412.193q0 64.491-41.391 105.687t-105.108 41.196Zm357.958-146.883q0 64.491-41.381 105.687-41.38 41.196-105.22 41.196-9.859 0-21.589-1.423-11.73-1.423-20.499-4.884 22.431-26.782 33.523-62.225 11.092-35.442 11.092-77.912 0-42.471-11.539-76.205-11.538-33.733-33.076-64.81 9.134-2.212 20.999-4.067 11.865-1.856 20.999-1.856 63.909 0 105.3 41.391t41.391 105.108ZM99.694 839.922h513.23v-32.538q0-16-7.941-29.212-7.94-13.213-23.367-20.173-64.769-29.307-114.615-41.5-49.846-12.192-111-12.192t-111.308 12.192q-50.154 12.193-113.922 41.5-15.427 6.96-23.252 20.173-7.825 13.212-7.825 29.212v32.538Zm256.323-339.229q37.753 0 63.176-25.131 25.423-25.132 25.423-62.885t-25.547-63.176q-25.547-25.423-63.3-25.423-37.754 0-62.761 25.546-25.007 25.547-25.007 63.301 0 37.753 25.131 62.76 25.131 25.008 62.885 25.008Zm.292 339.229Zm0-427.537Z"/></svg>